<?xml version="1.0" encoding="UTF-8" ?>
<!DOCTYPE svg PUBLIC "-//W3C//DTD SVG 1.1//EN" "http://www.w3.org/Graphics/SVG/1.1/DTD/svg11.dtd">
<svg width="297pt" height="245pt" viewBox="0 0 297 245" version="1.1" xmlns="http://www.w3.org/2000/svg">
<g id="#475b64ff">
<path fill="#475b64" opacity="1.00" d=" M 56.89 7.86 C 61.53 3.40 68.91 3.30 74.61 5.54 C 85.24 10.59 93.77 19.14 100.82 28.41 C 109.62 38.78 116.45 50.63 122.87 62.57 C 139.26 59.71 156.11 59.60 172.47 62.66 C 179.27 49.33 187.49 36.65 197.14 25.21 C 205.02 16.65 213.40 7.32 225.19 4.52 C 229.81 3.54 234.85 4.30 238.46 7.52 C 242.82 11.13 244.94 16.55 247.21 21.57 C 251.78 36.30 253.34 51.74 254.16 67.08 C 255.03 78.72 254.83 90.42 254.74 102.08 C 255.79 106.74 258.96 110.63 260.51 115.14 C 263.77 124.85 266.17 134.90 266.92 145.14 C 272.42 143.18 277.86 141.01 283.18 138.60 C 285.18 137.82 287.37 136.64 289.56 137.47 C 291.44 138.55 291.75 141.06 291.02 142.94 C 289.68 144.58 287.52 145.17 285.68 146.05 C 279.63 148.37 273.68 150.95 267.58 153.13 C 267.17 156.79 266.98 160.47 266.69 164.14 C 275.35 164.37 284.02 163.88 292.66 164.52 C 292.74 166.83 294.16 171.19 290.65 171.44 C 282.19 171.81 273.71 171.27 265.25 171.61 C 264.48 174.36 263.81 177.13 263.23 179.92 C 270.97 183.34 278.40 187.40 285.93 191.24 C 288.81 192.44 287.15 196.17 285.73 197.95 C 281.54 198.32 278.11 195.57 274.44 194.04 C 269.48 191.95 264.97 188.92 259.94 187.00 C 258.03 190.40 256.02 193.75 254.20 197.20 C 247.58 205.32 240.42 213.14 231.69 219.05 C 231.43 219.37 230.91 220.02 230.65 220.35 C 223.94 223.60 217.74 227.83 210.81 230.67 C 201.19 234.51 191.37 238.08 181.11 239.83 C 157.42 244.15 132.89 244.19 109.26 239.44 C 102.39 238.26 95.72 236.18 89.25 233.60 C 76.68 228.90 64.66 222.33 54.68 213.28 C 45.93 206.30 40.07 196.49 35.07 186.64 C 28.77 189.72 22.38 192.59 16.25 196.01 C 13.74 197.35 10.53 199.05 7.87 197.04 C 7.10 195.41 7.45 193.54 7.41 191.80 C 15.65 187.49 24.01 183.41 32.29 179.19 C 31.60 176.64 30.95 174.09 30.34 171.53 C 21.62 171.46 12.89 171.66 4.17 171.48 C 0.28 171.40 0.17 164.15 4.04 164.27 C 12.40 164.10 20.78 164.37 29.14 164.14 C 28.70 160.71 28.66 157.24 28.56 153.79 C 20.07 150.44 11.39 147.46 3.22 143.34 C 3.24 140.77 3.47 137.52 6.60 137.03 C 14.31 139.20 21.40 143.16 29.01 145.68 C 29.84 135.85 31.66 126.08 34.80 116.72 C 36.56 112.02 39.17 107.71 41.17 103.13 C 41.23 78.34 40.68 53.20 46.46 28.91 C 48.48 21.33 51.07 13.43 56.89 7.86 M 56.77 22.19 C 60.41 18.75 63.96 15.22 67.30 11.48 C 61.42 11.70 58.63 17.47 56.77 22.19 M 54.71 29.89 C 53.22 32.70 53.17 36.07 52.10 39.06 C 60.08 30.99 68.29 23.17 76.12 14.96 C 74.52 14.54 72.81 12.44 71.09 13.56 C 65.51 18.88 60.15 24.44 54.71 29.89 M 62.38 34.26 C 58.55 37.66 55.53 41.88 51.38 44.93 C 50.97 48.00 50.56 51.08 50.14 54.15 C 61.30 43.10 72.30 31.90 83.51 20.88 C 82.22 19.71 80.93 18.55 79.64 17.37 C 73.60 22.69 68.27 28.77 62.38 34.26 M 71.36 38.36 C 65.66 44.34 59.52 49.88 53.86 55.90 C 52.44 57.49 50.61 58.83 49.71 60.81 C 48.46 68.12 48.81 75.59 48.42 82.98 C 48.07 90.62 49.04 98.30 48.47 105.92 C 40.60 118.84 37.32 133.99 36.07 148.92 C 34.96 164.91 38.80 181.55 48.41 194.55 C 58.38 208.97 73.58 218.90 89.49 225.67 C 107.39 232.84 126.81 235.71 146.03 235.47 C 169.03 235.60 192.90 232.60 213.23 221.14 C 230.21 210.90 243.77 195.78 254.71 179.42 C 263.01 160.55 260.28 138.62 253.56 119.71 C 234.89 122.03 215.82 122.49 197.24 119.18 C 179.52 115.72 161.75 108.30 149.50 94.62 C 146.81 96.80 144.68 99.58 142.02 101.80 C 140.29 102.84 138.02 100.45 139.47 98.86 C 141.69 96.31 144.47 94.31 146.86 91.93 C 145.60 90.59 144.35 89.24 143.10 87.88 C 138.65 92.30 134.43 96.96 129.88 101.28 C 128.48 100.64 127.10 98.90 128.50 97.52 C 132.54 93.21 136.82 89.12 141.06 85.00 C 140.00 83.35 138.92 81.72 137.86 80.08 C 130.27 87.12 123.40 94.91 115.63 101.76 C 114.22 102.66 113.53 100.59 112.55 99.94 C 120.04 91.86 128.35 84.54 135.68 76.29 C 134.72 74.81 133.78 73.31 132.81 71.83 C 123.65 80.31 115.07 89.38 106.04 98.00 C 105.27 97.99 103.72 97.97 102.95 97.96 C 102.98 97.30 103.06 95.98 103.09 95.32 C 112.18 86.87 120.80 77.91 129.67 69.22 C 125.92 69.96 121.22 69.27 118.39 72.36 C 112.15 78.92 105.44 85.01 99.27 91.64 C 98.29 92.95 96.60 92.64 95.17 92.72 C 95.34 91.48 95.05 90.02 96.13 89.12 C 103.15 81.91 110.47 75.00 117.48 67.78 C 116.60 66.08 115.71 64.39 114.84 62.69 C 107.49 69.45 100.89 77.00 93.53 83.76 C 92.78 84.49 91.66 84.46 90.72 84.77 C 90.53 84.08 90.14 82.68 89.95 81.99 C 97.60 74.39 105.14 66.69 112.75 59.06 C 111.76 57.45 110.76 55.85 109.77 54.25 C 100.96 63.29 91.81 71.99 82.97 80.99 C 81.83 82.21 80.37 83.60 78.56 82.64 C 77.14 79.49 81.03 77.77 82.70 75.72 C 90.91 67.30 99.54 59.32 107.72 50.87 C 106.58 49.24 105.42 47.61 104.21 46.02 C 95.86 54.72 87.41 63.34 78.67 71.65 C 78.08 71.61 76.90 71.53 76.31 71.49 C 76.31 70.54 76.31 69.60 76.32 68.66 C 84.97 60.10 93.61 51.54 102.15 42.88 C 101.11 41.26 100.03 39.66 98.98 38.05 C 89.54 47.26 80.38 56.78 70.90 65.95 C 69.66 67.93 66.12 65.80 67.68 63.92 C 76.91 53.96 86.95 44.77 96.40 35.02 C 95.31 33.60 94.21 32.19 93.11 30.79 C 81.12 41.47 70.24 53.39 58.57 64.44 C 57.02 66.38 53.45 63.36 55.83 61.84 C 67.17 50.23 79.15 39.20 90.19 27.32 C 89.00 26.16 87.82 24.99 86.66 23.80 C 81.15 28.21 76.50 33.55 71.36 38.36 Z" />
<path fill="#475b64" opacity="1.00" d=" M 208.57 126.87 C 215.09 126.23 221.71 129.58 225.23 135.06 C 228.13 139.64 228.66 145.41 227.35 150.60 C 225.08 157.62 218.42 163.11 210.97 163.45 C 201.03 164.42 191.23 156.02 191.17 145.94 C 190.41 136.25 198.78 126.83 208.57 126.87 M 201.75 136.71 C 201.06 138.95 199.65 141.54 201.00 143.80 C 202.65 147.15 208.18 147.25 210.08 144.09 C 211.90 141.60 210.88 137.30 207.86 136.22 C 205.86 135.27 203.73 136.27 201.75 136.71 Z" />
<path fill="#475b64" opacity="1.00" d=" M 79.47 127.62 C 85.37 126.21 92.30 126.69 96.98 130.94 C 105.27 137.25 105.73 151.10 98.17 158.17 C 92.11 164.51 81.07 165.21 74.21 159.78 C 68.92 156.04 66.32 149.26 67.07 142.91 C 67.61 135.94 72.92 129.77 79.47 127.62 M 76.83 136.93 C 76.37 139.07 75.42 141.34 76.38 143.49 C 77.08 146.32 80.68 146.63 83.07 146.19 C 87.01 145.16 87.58 139.52 84.90 136.95 C 82.45 135.20 79.38 135.74 76.83 136.93 Z" />
<path fill="#475b64" opacity="1.00" d=" M 170.01 173.24 C 175.26 164.86 189.23 163.77 195.30 171.81 C 199.48 176.36 199.55 183.20 197.72 188.80 C 195.76 194.39 192.20 199.74 186.87 202.61 C 179.41 207.07 170.27 207.02 161.93 205.75 C 156.46 205.75 151.76 202.67 147.50 199.58 C 142.99 203.56 137.07 206.90 130.84 205.63 C 124.86 204.75 120.93 199.38 118.64 194.22 C 117.81 192.65 118.07 190.86 118.20 189.17 C 120.11 188.42 122.13 188.25 124.13 188.73 C 126.08 192.66 128.13 197.88 133.06 198.64 C 137.98 198.84 141.48 194.82 144.61 191.60 C 146.05 189.84 149.03 189.74 150.51 191.50 C 153.64 194.72 157.33 197.92 161.97 198.46 C 167.27 191.03 165.29 180.97 170.01 173.24 M 176.78 176.70 C 174.36 182.56 173.28 188.88 171.99 195.06 C 175.99 191.38 177.88 186.28 180.01 181.44 C 181.82 181.72 183.60 182.17 185.34 182.75 C 186.73 188.24 182.44 192.73 180.16 197.27 C 187.50 194.98 192.98 186.69 191.11 179.07 C 189.35 173.01 180.44 171.92 176.78 176.70 Z" />
</g>
</svg>
