<?xml version="1.0" encoding="UTF-8" ?>
<!DOCTYPE svg PUBLIC "-//W3C//DTD SVG 1.1//EN" "http://www.w3.org/Graphics/SVG/1.1/DTD/svg11.dtd">
<svg width="1238pt" height="1021pt" viewBox="0 0 1238 1021" version="1.1" xmlns="http://www.w3.org/2000/svg">
<g id="#bbbbbbff">
<path fill="#bbbbbb" opacity="1.00" d=" M 237.93 30.93 C 248.85 21.26 263.53 16.77 277.98 16.96 C 294.22 15.49 310.08 21.09 324.01 29.00 C 363.44 50.90 395.11 84.20 422.32 119.69 C 458.18 162.43 486.22 210.97 512.43 260.02 C 559.39 252.77 607.11 248.60 654.59 252.45 C 676.18 253.52 697.56 256.83 718.89 260.16 C 737.18 223.02 759.16 187.79 782.90 153.92 C 798.82 132.37 814.78 110.73 833.38 91.37 C 852.49 71.74 871.40 51.38 894.92 36.90 C 915.21 24.26 938.62 14.67 963.03 16.99 C 986.75 19.47 1005.43 37.62 1015.99 57.99 C 1023.12 72.29 1031.06 86.44 1034.84 102.11 C 1056.81 182.76 1060.06 266.91 1062.78 349.99 C 1063.27 372.32 1063.30 394.69 1062.09 417.00 C 1060.98 423.95 1063.79 430.48 1066.21 436.80 C 1073.04 452.74 1082.60 467.47 1087.94 484.06 C 1100.86 522.91 1109.70 563.18 1113.17 604.00 C 1134.38 596.35 1155.36 588.09 1175.93 578.87 C 1184.68 574.95 1193.80 570.55 1203.68 571.31 C 1216.39 573.48 1219.53 593.17 1209.21 600.18 C 1201.38 605.74 1192.08 608.60 1183.30 612.28 C 1160.92 621.04 1138.84 630.60 1116.09 638.37 C 1114.18 653.52 1113.85 668.82 1112.00 683.97 C 1148.02 684.81 1184.16 682.43 1220.11 685.10 C 1221.13 691.98 1222.00 698.90 1221.79 705.88 C 1221.28 709.73 1218.69 713.80 1214.59 714.41 C 1178.48 717.39 1142.24 713.21 1106.12 715.67 C 1103.13 726.93 1100.27 738.22 1097.96 749.64 C 1128.63 762.47 1157.51 779.07 1187.36 793.62 C 1191.90 796.24 1197.62 798.46 1199.00 804.16 C 1199.84 812.48 1195.12 819.70 1191.02 826.47 C 1171.03 825.71 1154.74 813.43 1136.90 806.13 C 1118.98 798.02 1102.17 787.63 1084.02 780.01 C 1072.29 798.61 1064.04 819.60 1048.82 835.81 C 1031.73 855.95 1013.59 875.29 993.60 892.58 C 983.93 901.01 973.17 908.06 963.48 916.45 C 954.78 923.26 944.47 927.48 934.96 932.98 C 914.37 944.48 893.84 956.38 871.71 964.73 C 834.93 979.21 797.44 992.59 758.38 999.36 C 670.66 1015.32 580.27 1018.16 492.01 1004.93 C 460.57 1000.01 429.15 994.16 398.89 984.14 C 362.43 971.26 326.36 956.72 292.95 937.07 C 263.58 920.14 236.95 898.87 212.21 875.79 C 183.59 848.45 163.96 813.53 145.79 778.78 C 117.97 792.07 90.17 805.42 63.03 820.05 C 55.85 824.26 47.36 825.81 39.12 824.85 C 36.07 824.21 32.57 822.77 31.39 819.64 C 29.82 812.91 30.15 805.94 29.78 799.12 C 64.24 781.14 99.06 763.86 133.94 746.71 C 131.04 736.21 128.37 725.65 125.84 715.06 C 88.59 714.64 51.31 715.52 14.09 714.77 C 3.76 711.17 1.81 696.69 7.34 688.31 C 11.23 683.22 18.36 684.17 23.97 683.92 C 56.29 683.95 88.62 684.08 120.94 683.98 C 119.48 669.81 118.92 655.57 118.83 641.34 C 83.07 627.74 47.05 614.65 12.59 597.90 C 13.64 590.15 12.44 580.65 18.69 574.70 C 23.09 568.54 31.82 571.73 37.68 573.36 C 65.88 582.94 92.43 596.80 120.65 606.34 C 122.74 570.59 130.00 535.30 139.76 500.91 C 146.00 478.01 157.58 457.15 168.07 436.02 C 170.83 431.51 170.85 426.13 170.99 421.03 C 171.13 341.69 170.24 261.91 181.18 183.13 C 185.96 150.93 191.98 118.70 202.90 87.94 C 210.65 66.90 221.38 46.39 237.93 30.93 M 255.99 60.00 C 248.52 68.52 242.56 78.45 238.90 89.20 C 252.45 76.08 266.46 63.27 278.28 48.52 C 269.85 49.79 261.75 53.62 255.99 60.00 M 290.67 62.66 C 271.84 81.84 252.70 100.71 233.71 119.73 C 222.50 129.75 222.83 145.76 219.10 159.20 C 251.73 127.33 284.95 95.99 315.88 62.44 C 311.56 60.30 307.32 57.94 302.72 56.44 C 297.33 54.62 294.06 59.71 290.67 62.66 M 260.32 143.33 C 246.78 155.46 235.89 170.25 221.78 181.78 C 218.98 184.51 214.69 186.67 214.13 190.97 C 212.23 201.65 211.21 212.48 209.99 223.26 C 251.02 182.87 291.42 141.84 332.27 101.27 C 337.10 96.57 342.21 92.15 347.22 87.63 C 342.28 82.79 337.17 78.13 332.00 73.54 C 306.54 95.18 285.30 121.17 260.32 143.33 M 327.23 131.23 C 305.78 152.78 284.22 174.22 262.77 195.77 C 253.35 205.36 242.98 213.99 234.17 224.18 C 225.19 234.44 212.89 242.40 207.46 255.33 C 202.48 282.55 203.84 310.44 202.58 337.97 C 200.68 370.97 204.49 403.98 202.75 436.99 C 203.19 441.13 201.07 444.68 199.14 448.08 C 172.25 493.96 159.36 546.57 152.93 598.95 C 145.30 656.49 152.84 716.61 177.67 769.31 C 197.97 810.18 227.42 846.44 263.03 874.96 C 317.32 918.63 382.17 948.59 450.01 963.98 C 501.64 976.59 554.93 981.29 608.00 981.07 C 677.02 980.72 746.88 974.87 812.98 953.83 C 848.28 942.10 882.72 926.81 913.02 905.02 C 963.95 869.40 1006.51 823.08 1043.17 773.18 C 1051.65 761.40 1061.01 749.75 1065.88 735.90 C 1079.42 699.69 1084.75 660.52 1082.07 622.00 C 1079.85 580.31 1070.48 539.28 1056.82 499.92 C 1008.22 504.99 959.34 508.93 910.45 506.40 C 866.74 504.38 822.80 499.68 780.67 487.39 C 721.55 470.61 664.72 441.24 622.87 395.47 C 612.41 404.09 603.73 414.61 593.62 423.60 C 590.58 427.09 584.81 426.15 581.67 423.34 C 578.18 420.35 578.20 414.56 581.26 411.27 C 590.49 401.05 601.24 392.37 611.39 383.10 C 606.27 377.83 601.18 372.51 596.28 367.04 C 578.29 386.02 559.95 404.65 541.53 423.22 C 538.25 420.70 533.76 418.41 532.98 413.98 C 531.98 407.24 537.86 403.12 541.70 398.71 C 556.80 383.82 571.49 368.50 587.20 354.25 C 582.91 347.89 578.84 341.39 574.79 334.89 C 544.83 361.85 517.97 392.05 488.40 419.42 C 484.92 422.06 481.75 427.07 476.57 424.47 C 473.33 422.56 471.01 419.45 468.30 416.93 C 490.64 390.44 517.40 368.29 541.15 343.15 C 548.87 334.69 556.91 326.51 564.48 317.91 C 560.87 311.93 557.09 306.07 553.55 300.08 C 519.16 332.16 487.04 366.56 452.84 398.84 C 449.27 402.21 445.99 406.00 441.77 408.58 C 437.57 409.55 433.15 408.97 428.91 409.38 C 429.08 405.10 429.23 400.80 429.42 396.53 C 466.45 362.15 501.59 325.80 537.22 289.99 C 522.82 291.46 505.47 290.08 494.71 301.69 C 476.95 319.27 459.79 337.48 441.34 354.35 C 431.48 363.82 423.06 374.73 412.60 383.58 C 408.07 387.91 401.20 386.57 395.60 387.53 C 397.02 381.92 396.34 375.14 400.59 370.63 C 413.12 356.51 426.96 343.62 440.72 330.72 C 456.88 314.84 472.66 298.59 488.88 282.77 C 485.37 275.85 481.93 268.89 478.48 261.94 C 451.31 289.29 423.97 316.47 396.77 343.79 C 391.69 349.18 385.15 352.82 377.92 354.29 C 376.66 349.91 375.49 345.52 374.23 341.15 C 405.98 309.57 437.68 277.93 469.22 246.14 C 465.23 239.83 461.29 233.49 457.52 227.05 C 419.99 264.35 382.72 301.92 345.22 339.24 C 340.60 344.31 334.26 347.17 327.36 346.87 C 326.73 342.75 326.42 338.57 326.43 334.42 C 327.29 331.09 330.06 328.75 332.31 326.33 C 360.09 300.80 385.38 272.70 413.20 247.20 C 425.01 235.66 436.62 223.91 448.22 212.14 C 443.60 205.81 439.08 199.42 434.67 192.94 C 424.30 202.82 414.48 213.24 404.73 223.73 C 379.55 248.94 354.58 274.37 328.68 298.84 C 326.02 298.79 320.70 298.68 318.04 298.63 C 318.66 293.13 316.56 286.27 321.16 282.17 C 355.95 247.85 390.20 212.97 425.02 178.67 C 420.88 172.46 416.81 166.19 412.79 159.90 C 397.13 173.49 383.04 188.74 368.25 203.25 C 344.15 227.15 320.41 251.43 296.16 275.17 C 292.16 280.88 283.26 279.40 280.58 273.36 C 278.50 266.57 285.40 262.45 288.88 257.88 C 315.13 231.14 341.73 204.73 368.32 178.32 C 380.04 168.31 389.98 156.51 400.87 145.66 C 396.58 140.32 392.41 134.88 388.12 129.54 C 351.97 160.81 319.26 195.74 285.25 229.25 C 271.39 242.71 258.44 257.18 243.58 269.56 C 240.25 273.49 234.53 271.66 231.24 268.75 C 228.00 265.90 228.47 260.41 231.68 257.71 C 258.13 231.82 283.61 204.93 310.74 179.74 C 332.60 158.09 354.32 136.27 374.99 113.49 C 370.11 109.35 365.51 104.90 361.38 100.01 C 349.26 109.58 338.14 120.33 327.23 131.23 Z" />
<path fill="#bbbbbb" opacity="1.00" d=" M 350.41 528.40 C 364.96 527.74 380.18 529.66 392.98 537.04 C 403.95 543.22 413.96 551.69 420.42 562.62 C 438.12 590.74 435.81 630.57 413.62 655.65 C 393.14 679.96 356.64 688.06 327.30 676.58 C 298.84 666.39 278.28 637.38 278.95 607.01 C 275.15 566.94 310.08 528.29 350.41 528.40 M 331.44 567.51 C 326.92 568.24 320.84 569.52 319.70 574.77 C 316.87 583.52 315.46 593.98 321.04 601.98 C 322.89 605.60 326.96 607.24 330.63 608.39 C 338.14 609.45 346.83 610.38 353.05 605.07 C 362.64 596.45 362.46 579.60 353.05 570.95 C 347.14 565.87 338.60 566.95 331.44 567.51 Z" />
<path fill="#bbbbbb" opacity="1.00" d=" M 863.43 528.51 C 892.74 523.82 924.43 537.62 939.74 563.24 C 948.61 576.99 951.59 593.83 950.86 609.97 C 950.42 646.20 918.85 678.08 883.17 681.35 C 846.08 686.99 807.57 660.83 798.52 624.58 C 796.21 613.66 794.80 602.14 797.17 591.12 C 802.60 558.95 830.45 531.15 863.43 528.51 M 841.50 569.50 C 839.38 577.59 834.66 585.75 836.59 594.36 C 838.15 600.60 842.90 605.85 848.97 608.03 C 860.21 612.90 874.99 605.92 878.01 594.00 C 881.47 583.26 874.88 570.03 863.68 567.31 C 856.23 566.58 848.79 568.21 841.50 569.50 Z" />
<path fill="#bbbbbb" opacity="1.00" d=" M 723.38 705.39 C 746.06 689.33 779.08 687.95 802.28 703.71 C 814.34 712.71 823.99 725.48 827.51 740.29 C 834.23 770.37 822.76 801.54 803.76 824.76 C 794.34 836.48 781.41 844.67 767.89 850.88 C 742.00 861.78 713.08 862.39 685.53 859.56 C 674.05 858.12 662.15 858.08 651.32 853.56 C 638.11 848.79 626.42 840.87 615.06 832.79 C 605.03 840.45 594.95 848.43 583.14 853.17 C 570.93 857.71 557.49 860.21 544.56 857.53 C 529.15 854.76 515.82 844.74 506.81 832.20 C 497.74 819.27 488.04 804.22 492.55 787.54 C 499.32 784.90 506.81 784.48 514.02 784.97 C 518.74 785.21 519.89 790.68 522.01 793.98 C 527.11 804.79 533.10 815.87 543.19 822.83 C 551.22 828.74 562.29 827.91 571.02 824.02 C 583.71 818.11 592.99 807.38 602.70 797.67 C 607.60 792.13 616.49 790.25 622.97 794.06 C 629.52 797.94 634.17 804.19 640.03 808.96 C 649.82 817.95 662.05 824.05 675.10 826.62 C 691.06 802.65 690.78 772.92 698.10 746.02 C 702.04 730.35 709.61 714.67 723.38 705.39 M 745.02 730.02 C 738.94 732.82 736.35 739.26 734.11 745.11 C 726.68 766.28 722.40 788.38 718.15 810.35 C 733.55 795.42 741.61 775.15 749.54 755.68 C 756.64 756.93 763.82 758.09 770.73 760.28 C 775.79 762.11 773.51 768.99 773.95 772.96 C 773.44 791.33 760.07 805.20 752.63 821.04 C 768.22 814.82 781.89 803.76 789.66 788.69 C 797.14 775.22 800.18 758.68 795.17 743.86 C 787.61 725.05 761.25 718.71 745.02 730.02 Z" />
</g>
</svg>
